# xmcd CD database file
#
# Track frame offsets:
#	150
#	18297
#	32838
#	52333
#	70407
#	81017
#	99488
#	119897
#	140531
#	163070
#	180522
#	200877
#	223009
#	238885
#	253732
#	273169
#	296329
#	318725
#	336914
#
# Disc length: 4727 seconds
#
# Revision: 0
# Processed by: cddbd v1.5.2PL0 Copyright (c) Steve Scherf et al.
# Submitted via: CDex 1.50
#
DISCID=32127513
DTITLE=Various Artist - The Best Inspirational Moments
DYEAR=2001
DGENRE=New Age
TTITLE0=01 - Sarah Brightman - Eden
TTITLE1=02 - Michael Nyman - The Heart Asks First - The Promise (Theme from The Piano)
TTITLE2=03 - Mike Oldfield - Tubular Bells Part 1 (Edit)
TTITLE3=04 - Adiemus - Adiemus
TTITLE4=05 - Mediaeval Baebes - Ah Si Mon Moine
TTITLE5=06 - Sacred Spirit - Yeha Noha (Wishes of Happiness and Prosperity)
TTITLE6=07 - Vanessa Mae - I'm A Doun
TTITLE7=08 - Madredeus - Haja O Que Hover
TTITLE8=09 - Enigma - Beyond The Invisible
TTITLE9=10 - Yanni - Adagio in C Minor
TTITLE10=11 - Hevia - Busindre Reel
TTITLE11=12 - Elbosco - Nirvana
TTITLE12=13 - Edea - Jera
TTITLE13=14 - Thomas Otten - Espiritu
TTITLE14=15 - Robbie Robertson and The Red Road Ensemble - Mahk Jchi (Heartbeat Drum Song)
TTITLE15=16 - Ennio Morricone - Chi Mai
TTITLE16=17 - Tangerine Dream - Logos Part One A
TTITLE17=18 - Craig Armstrong Featuring Elizabeth Fraser - This Love (Radio Edit)
TTITLE18=19 - Deep Forest - Sweet Lullaby
EXTD=YEAR: 2001
EXTT0=
EXTT1=
EXTT2=
EXTT3=
EXTT4=
EXTT5=
EXTT6=
EXTT7=
EXTT8=
EXTT9=
EXTT10=
EXTT11=
EXTT12=
EXTT13=
EXTT14=
EXTT15=
EXTT16=
EXTT17=
EXTT18=
PLAYORDER=
